<?xml version="1.0" encoding="UTF-8" standalone="no"?>
<!-- Created with Inkscape (http://www.inkscape.org/) -->

<svg
   xmlns:dc="http://purl.org/dc/elements/1.1/"
   xmlns:cc="http://creativecommons.org/ns#"
   xmlns:rdf="http://www.w3.org/1999/02/22-rdf-syntax-ns#"
   xmlns:svg="http://www.w3.org/2000/svg"
   xmlns="http://www.w3.org/2000/svg"
   xmlns:sodipodi="http://sodipodi.sourceforge.net/DTD/sodipodi-0.dtd"
   xmlns:inkscape="http://www.inkscape.org/namespaces/inkscape"
   width="128"
   height="128"
   viewBox="0 0 33.866666 33.866668"
   version="1.1"
   id="svg5011"
   inkscape:version="0.92.1 r15371"
   sodipodi:docname="icon.svg"
   inkscape:export-filename="C:\Users\Tim\Google Drive\Programs\UsbTool\icon.png"
   inkscape:export-xdpi="879.28998"
   inkscape:export-ydpi="879.28998">
  <sodipodi:namedview
     id="base"
     pagecolor="#ffffff"
     bordercolor="#666666"
     borderopacity="1.0"
     inkscape:pageopacity="0.0"
     inkscape:pageshadow="2"
     inkscape:zoom="2.8"
     inkscape:cx="19.110355"
     inkscape:cy="75.721501"
     inkscape:document-units="mm"
     inkscape:current-layer="layer1"
     showgrid="false"
     units="px"
     inkscape:window-width="1920"
     inkscape:window-height="1017"
     inkscape:window-x="-8"
     inkscape:window-y="-8"
     inkscape:window-maximized="1" />
  <defs
     id="defs5005">
    <filter
       style="color-interpolation-filters:sRGB"
       inkscape:label="Blur"
       id="filter6061">
      <feGaussianBlur
         stdDeviation="1 1"
         result="blur"
         id="feGaussianBlur6059" />
    </filter>
    <filter
       inkscape:collect="always"
       style="color-interpolation-filters:sRGB"
       id="filter6947"
       x="-0.17333274"
       width="1.3466655"
       y="-0.39000299"
       height="1.780006">
      <feGaussianBlur
         inkscape:collect="always"
         stdDeviation="1.1803132"
         id="feGaussianBlur6949" />
    </filter>
  </defs>
  <metadata
     id="metadata5008">
    <rdf:RDF>
      <cc:Work
         rdf:about="">
        <dc:format>image/svg+xml</dc:format>
        <dc:type
           rdf:resource="http://purl.org/dc/dcmitype/StillImage" />
        <dc:title></dc:title>
      </cc:Work>
    </rdf:RDF>
  </metadata>
  <g
     transform="translate(0,-263.13332)"
     id="layer1"
     inkscape:groupmode="layer"
     inkscape:label="Layer 1">
    <g
       id="g5803"
       inkscape:label="Gear12"
       transform="translate(16.933333,280.06665)"
       style="fill:#dbe2e3;fill-opacity:1;stroke:#1b3770;stroke-opacity:1;stroke-width:0.13229167;stroke-miterlimit:4;stroke-dasharray:none">
      <path
         id="path5801"
         style="fill:#dbe2e3;stroke:#1b3770;stroke-width:0.13229167;fill-opacity:1;stroke-opacity:1;stroke-miterlimit:4;stroke-dasharray:none"
         d="m 10.41573,-1.52951 1.32938,-0.19521 0.77974,0.07579 2.19907,0.9955 V 0.65343 L 12.52485,1.64893 11.74511,1.72472 10.41573,1.52951 9.78505,3.88327 11.03392,4.3789 11.6713,4.83441 13.078,6.79607 12.42457,7.92785 10.02237,7.69044 9.3092,7.36621 8.25553,6.53246 6.53246,8.25553 7.36621,9.3092 7.69044,10.02237 7.92785,12.42457 6.79607,13.078 4.83441,11.6713 4.3789,11.03392 3.88327,9.78505 l -2.35376,0.63068 0.19521,1.32938 -0.07579,0.77974 -0.9955,2.19907 h -1.30686 l -0.9955,-2.19907 -0.07579,-0.77974 0.19521,-1.32938 -2.35376,-0.63068 -0.49563,1.24887 -0.45551,0.63738 -1.96166,1.4067 -1.13178,-0.65343 0.23741,-2.4022 0.32423,-0.71317 0.83375,-1.05367 -1.72307,-1.72307 -1.05367,0.83375 -0.71317,0.32423 -2.4022,0.23741 -0.65343,-1.13178 1.4067,-1.96166 0.63738,-0.45551 1.24887,-0.49563 -0.63068,-2.35376 -1.32938,0.19521 -0.77974,-0.07579 -2.19907,-0.9955 v -1.30686 l 2.19907,-0.9955 0.77974,-0.07579 1.32938,0.19521 0.63068,-2.35376 -1.24887,-0.49563 -0.63738,-0.45551 -1.4067,-1.96166 0.65343,-1.13178 2.4022,0.23741 0.71317,0.32423 1.05367,0.83375 1.72307,-1.72307 -0.83375,-1.05367 -0.32423,-0.71317 -0.23741,-2.4022 1.13178,-0.65343 1.96166,1.4067 0.45551,0.63738 0.49563,1.24887 2.35376,-0.63068 -0.19521,-1.32938 0.07579,-0.77974 0.9955,-2.19907 h 1.30686 l 0.9955,2.19907 0.07579,0.77974 -0.19521,1.32938 2.35376,0.63068 0.49563,-1.24887 0.45551,-0.63738 1.96166,-1.4067 1.13178,0.65343 -0.23741,2.4022 -0.32423,0.71317 -0.83375,1.05367 1.72307,1.72307 1.05367,-0.83375 0.71317,-0.32423 2.4022,-0.23741 0.65343,1.13178 -1.4067,1.96166 -0.63738,0.45551 -1.24887,0.49563 z"
         inkscape:connector-curvature="0" />
    </g>
    <path
       style="stroke-width:0.03628296;filter:url(#filter6947)"
       inkscape:connector-curvature="0"
       d="m 25.10476,280.067 -1.81549,-1.04844 v 0.7479 h -9.279475 l 1.806819,-1.90892 c 0.153767,-0.12325 0.354955,-0.20972 0.561914,-0.21451 0.837228,0 1.334414,-2.7e-4 1.517426,-5.9e-4 0.124051,0.35344 0.457273,0.60854 0.85341,0.60854 0.501141,0 0.907836,-0.40666 0.907836,-0.90798 0,-0.50154 -0.406659,-0.90805 -0.907836,-0.90805 -0.396137,0 -0.729359,0.25496 -0.85341,0.6081 l -1.499648,-2.7e-4 c -0.406442,0 -0.832331,0.22299 -1.103401,0.48441 0.0074,-0.008 0.0151,-0.016 -4.23e-4,1.3e-4 -0.0058,0.007 -1.916973,2.0251 -1.916973,2.0251 -0.153441,0.12308 -0.354521,0.20899 -0.561334,0.21393 h -1.049746 c -0.139145,-0.69348 -0.751529,-1.21595 -1.486113,-1.21595 -0.8375195,0 -1.5164095,0.67889 -1.5164095,1.51615 0,0.83751 0.67889,1.51645 1.5164095,1.51645 0.73473,0 1.347114,-0.52292 1.486259,-1.21697 h 1.031343 c 0.0026,0 0.0053,1.4e-4 0.008,0 h 2.281146 c 0.206413,0.005 0.40724,0.0913 0.560535,0.2145 0,0 1.910806,2.0185 1.91672,2.02502 0.01532,0.0162 0.0077,0.008 1.51e-4,1.5e-4 0.271069,0.26137 0.69714,0.48423 1.103656,0.48423 l 1.445222,-2.9e-4 v 0.60872 h 1.815942 v -1.81582 h -1.815962 v 0.60791 c 0,0 -0.380644,-5.8e-4 -1.462929,-5.8e-4 -0.206995,-0.004 -0.408401,-0.0911 -0.562096,-0.21435 l -1.807218,-1.9093 h 7.010194 v 0.74911 z"
       id="path1334-5" />
    <path
       style="stroke-width:0.03628296;fill:#000000;fill-opacity:1"
       inkscape:connector-curvature="0"
       d="m 25.10476,280.06699 -1.81549,-1.04844 v 0.7479 h -9.279475 l 1.806819,-1.90892 c 0.153767,-0.12325 0.354955,-0.20972 0.561914,-0.21451 0.837228,0 1.334414,-2.7e-4 1.517426,-5.9e-4 0.124051,0.35344 0.457273,0.60854 0.85341,0.60854 0.501141,0 0.907836,-0.40666 0.907836,-0.90798 0,-0.50154 -0.406659,-0.90805 -0.907836,-0.90805 -0.396137,0 -0.729359,0.25496 -0.85341,0.6081 l -1.499648,-2.7e-4 c -0.406442,0 -0.832331,0.22299 -1.103401,0.48441 0.0074,-0.008 0.0151,-0.016 -4.29e-4,1.3e-4 -0.0058,0.007 -1.916973,2.0251 -1.916973,2.0251 -0.153441,0.12308 -0.354521,0.20899 -0.561334,0.21393 h -1.04974 c -0.139145,-0.69348 -0.751529,-1.21595 -1.486113,-1.21595 -0.8375197,0 -1.5164097,0.67889 -1.5164097,1.51615 0,0.83751 0.67889,1.51645 1.5164097,1.51645 0.73473,0 1.347114,-0.52292 1.486259,-1.21697 h 1.031343 c 0.0026,0 0.0053,1.4e-4 0.008,0 h 2.281146 c 0.206413,0.005 0.40724,0.0913 0.560535,0.2145 0,0 1.910806,2.0185 1.91672,2.02502 0.01532,0.0162 0.0077,0.008 1.51e-4,1.5e-4 0.271069,0.26137 0.69714,0.48423 1.103656,0.48423 l 1.445222,-2.8e-4 v 0.60872 h 1.815942 v -1.81582 h -1.815962 v 0.60791 c 0,0 -0.380644,-5.9e-4 -1.462929,-5.9e-4 -0.206995,-0.004 -0.408401,-0.0911 -0.562096,-0.21435 l -1.807217,-1.9093 h 7.010194 v 0.74911 z"
       id="path1334" />
  </g>
</svg>
